# xmcd CD database file
#
# Track frame offsets:
#	150
#	11535
#	25555
#	42435
#	58213
#	73653
#	90655
#	102308
#	116900
#	134503
#	147973
#	158710
#
# Disc length: 2307 seconds
#
# Revision: 0
# Processed by: cddbd v1.5.1PL2 Copyright (c) Steve Scherf et al.
# Submitted via: CDex 1.60beta1
#
DISCID=a609010c
DTITLE=Stephane Grappelli - Stephanova
DYEAR=1983
DGENRE=Jazz
TTITLE0=Tune Up
TTITLE1=Thou Swell
TTITLE2=Norwegian Dance
TTITLE3=Fulton Street Samba
TTITLE4=My Foolish Heart
TTITLE5=Lover
TTITLE6=The Way You Look Tonight
TTITLE7=Stephanova
TTITLE8=Smoke Rings And Wine
TTITLE9=Tangerine
TTITLE10=Waltz For Queenie
TTITLE11=Sonny Boy
EXTD=YEAR: 1983
EXTT0=
EXTT1=
EXTT2=
EXTT3=
EXTT4=
EXTT5=
EXTT6=
EXTT7=
EXTT8=
EXTT9=
EXTT10=
EXTT11=
PLAYORDER=
